<svg width="456" height="207" viewBox="0 0 456 207" fill="none" xmlns="http://www.w3.org/2000/svg">
<path d="M4.8 0.663919H41.62C50.3 0.663919 56.9733 1.31725 61.64 2.62392C66.4 3.83725 69.76 5.84392 71.72 8.64392C73.68 11.3506 74.66 15.1773 74.66 20.1239V31.3239C74.66 33.8439 73.6333 36.2239 71.58 38.4639C69.62 40.7039 67.2867 42.2439 64.58 43.0839V43.7839C68.1267 44.1573 71.3467 45.6973 74.24 48.4039C77.2267 51.0173 78.72 53.9573 78.72 57.2239V71.2239C78.72 78.5973 75.78 83.8239 69.9 86.9039C64.02 89.9839 54.92 91.5239 42.6 91.5239H4.8V0.663919ZM41.62 37.6239C45.0733 37.6239 47.64 37.3439 49.32 36.7839C51 36.2239 52.12 35.3373 52.68 34.1239C53.3333 32.8173 53.66 30.9506 53.66 28.5239V24.0439C53.66 21.8973 53.38 20.3106 52.82 19.2839C52.26 18.1639 51.0933 17.3706 49.32 16.9039C47.64 16.4373 44.9333 16.2039 41.2 16.2039H26.64V37.6239H41.62ZM42.18 75.9839C47.5 75.9839 51.28 75.3773 53.52 74.1639C55.76 72.9506 56.88 70.9906 56.88 68.2839V61.0039C56.88 57.6439 55.9933 55.2639 54.22 53.8639C52.54 52.4639 49.5067 51.7639 45.12 51.7639H26.64V75.9839H42.18ZM126.847 92.9239C102.861 92.9239 90.8672 85.5973 90.8672 70.9439V46.5839C90.8672 38.0906 93.5739 31.9306 98.9872 28.1039C104.494 24.2773 112.941 22.3639 124.327 22.3639C135.061 22.3639 142.901 24.2306 147.847 27.9639C152.887 31.6039 155.407 37.8106 155.407 46.5839V63.1039H111.447V69.2639C111.447 73.1839 112.847 75.9839 115.647 77.6639C118.447 79.3439 123.487 80.1839 130.767 80.1839C137.487 80.1839 145.047 79.2039 153.447 77.2439V90.2639C145.141 92.0373 136.274 92.9239 126.847 92.9239ZM135.947 51.4839V41.6839C135.947 39.4439 135.014 37.7639 133.147 36.6439C131.374 35.5239 128.341 34.9639 124.047 34.9639C119.101 34.9639 115.787 35.5239 114.107 36.6439C112.334 37.8573 111.447 39.5373 111.447 41.6839V51.4839H135.947ZM190.21 92.9239C183.864 92.9239 179.104 92.3639 175.93 91.2439C172.85 90.0306 170.657 87.9306 169.35 84.9439C168.137 81.8639 167.53 77.2906 167.53 71.2239C167.53 65.8106 168.184 61.5639 169.49 58.4839C170.89 55.4039 173.084 53.2106 176.07 51.9039C179.15 50.5039 183.35 49.8039 188.67 49.8039H211.63V45.1839C211.63 42.2906 211.21 40.1439 210.37 38.7439C209.624 37.3439 208.177 36.3639 206.03 35.8039C203.977 35.2439 200.85 34.9639 196.65 34.9639C190.864 34.9639 182.93 35.5239 172.85 36.6439V23.7639C180.224 22.8306 188.857 22.3639 198.75 22.3639C207.43 22.3639 214.104 23.0173 218.77 24.3239C223.53 25.6306 226.937 27.8706 228.99 31.0439C231.044 34.2173 232.07 38.8373 232.07 44.9039V91.5239H212.05V85.3639C210.464 88.0706 208.317 89.9839 205.61 91.1039C202.904 92.3173 197.77 92.9239 190.21 92.9239ZM198.19 80.1839C202.297 80.1839 205.237 80.0439 207.01 79.7639C208.317 79.5773 209.204 79.2973 209.67 78.9239C210.23 78.5506 210.697 77.9439 211.07 77.1039C211.444 76.4506 211.63 75.4706 211.63 74.1639V61.0039H197.63C194.457 61.0039 192.217 61.2373 190.91 61.7039C189.604 62.0773 188.717 62.9173 188.25 64.2239C187.784 65.4373 187.55 67.6306 187.55 70.8039C187.55 73.8839 187.784 76.0306 188.25 77.2439C188.717 78.4573 189.604 79.2506 190.91 79.6239C192.31 79.9973 194.737 80.1839 198.19 80.1839ZM273.574 92.9239C264.894 92.9239 258.78 91.3839 255.234 88.3039C251.78 85.1306 250.054 80.1839 250.054 73.4639V23.7639H270.494V70.6639C270.494 73.2773 270.727 75.2373 271.194 76.5439C271.754 77.8506 272.78 78.7839 274.274 79.3439C275.86 79.9039 278.24 80.1839 281.414 80.1839C285.427 80.1839 288.367 79.9506 290.234 79.4839C292.1 78.9239 293.36 77.9906 294.014 76.6839C294.667 75.3773 294.994 73.3706 294.994 70.6639V23.7639H315.434V91.5239H295.274V83.2639C293.78 89.7039 286.547 92.9239 273.574 92.9239ZM367.195 92.9239C363.742 92.9239 360.849 92.7839 358.515 92.5039C356.182 92.2239 353.849 91.6639 351.515 90.8239C348.902 89.9839 346.755 88.8173 345.075 87.3239C343.489 85.8306 342.182 83.7773 341.155 81.1639C340.035 78.4573 339.475 75.3306 339.475 71.7839V36.3639H325.755V23.7639H339.475V4.16392H359.915V23.7639H378.535V36.3639H359.915V68.2839C359.915 71.5506 360.195 74.0239 360.755 75.7039C361.315 77.2906 362.389 78.4573 363.975 79.2039C365.562 79.8573 367.989 80.1839 371.255 80.1839C372.562 80.1839 374.989 79.9506 378.535 79.4839V92.2239C374.149 92.6906 370.369 92.9239 367.195 92.9239ZM409.507 90.9639L382.487 23.7639H404.747L420.007 71.6439L433.867 23.7639H455.007L417.907 120.644H397.187L409.507 90.9639ZM0.6 192.224L47.92 130.204H2V114.664H74.8V127.824L27.48 189.844H75.64V205.524H0.6V192.224ZM122.163 206.924C117.963 206.924 114.509 206.784 111.803 206.504C109.096 206.224 106.203 205.664 103.123 204.824C99.7627 203.891 97.056 202.584 95.0027 200.904C92.9493 199.131 91.2227 196.657 89.8227 193.484C88.4227 190.404 87.7227 186.671 87.7227 182.284V162.264C87.7227 157.784 88.4227 153.864 89.8227 150.504C91.2227 147.144 93.0427 144.531 95.2827 142.664C97.2427 141.077 99.8093 139.771 102.983 138.744C106.249 137.624 109.423 136.924 112.503 136.644C116.049 136.457 119.269 136.364 122.163 136.364C126.456 136.364 129.863 136.504 132.383 136.784C134.996 136.971 137.843 137.531 140.923 138.464C144.283 139.491 146.989 140.891 149.043 142.664C151.189 144.437 153.009 146.957 154.503 150.224C155.903 153.584 156.603 157.597 156.603 162.264V182.284C156.603 186.484 155.903 190.171 154.503 193.344C153.196 196.517 151.469 198.991 149.323 200.764C147.456 202.351 144.889 203.657 141.623 204.684C138.449 205.617 135.323 206.224 132.243 206.504C129.443 206.784 126.083 206.924 122.163 206.924ZM122.163 194.184C125.989 194.184 128.883 193.904 130.843 193.344C132.803 192.691 134.156 191.711 134.903 190.404C135.743 189.097 136.163 187.184 136.163 184.664V159.044C136.163 155.311 135.183 152.697 133.223 151.204C131.263 149.711 127.576 148.964 122.163 148.964C116.749 148.964 113.063 149.711 111.103 151.204C109.143 152.697 108.163 155.311 108.163 159.044V184.664C108.163 187.184 108.536 189.097 109.283 190.404C110.123 191.711 111.523 192.691 113.483 193.344C115.443 193.904 118.336 194.184 122.163 194.184ZM172.534 137.764H192.694V146.024C194.281 139.584 201.514 136.364 214.394 136.364C223.074 136.364 229.141 137.951 232.594 141.124C236.141 144.204 237.914 149.104 237.914 155.824V205.524H217.474V158.484C217.474 155.871 217.194 153.911 216.634 152.604C216.168 151.297 215.141 150.364 213.554 149.804C212.061 149.244 209.728 148.964 206.554 148.964C202.541 148.964 199.601 149.244 197.734 149.804C195.868 150.271 194.608 151.157 193.954 152.464C193.301 153.771 192.974 155.777 192.974 158.484V205.524H172.534V137.764ZM289.816 206.924C265.829 206.924 253.836 199.597 253.836 184.944V160.584C253.836 152.091 256.543 145.931 261.956 142.104C267.463 138.277 275.909 136.364 287.296 136.364C298.029 136.364 305.869 138.231 310.816 141.964C315.856 145.604 318.376 151.811 318.376 160.584V177.104H274.416V183.264C274.416 187.184 275.816 189.984 278.616 191.664C281.416 193.344 286.456 194.184 293.736 194.184C300.456 194.184 308.016 193.204 316.416 191.244V204.264C308.109 206.037 299.243 206.924 289.816 206.924ZM298.916 165.484V155.684C298.916 153.444 297.983 151.764 296.116 150.644C294.343 149.524 291.309 148.964 287.016 148.964C282.069 148.964 278.756 149.524 277.076 150.644C275.303 151.857 274.416 153.537 274.416 155.684V165.484H298.916Z" fill="#2B7FFF"/>
</svg>
